<mxfile host="app.diagrams.net" modified="2022-06-22T16:56:11.095Z" agent="5.0 (Macintosh; Intel Mac OS X 10_15_7) AppleWebKit/537.36 (KHTML, like Gecko) Chrome/101.0.4951.64 Safari/537.36" etag="6OUHB-AV10wTEH6r7_OT" version="20.0.2" type="github">
  <diagram id="Nawkl-2bREGopFcCKAgP" name="Page-1">
    <mxGraphModel dx="2276" dy="889" grid="1" gridSize="10" guides="1" tooltips="1" connect="1" arrows="1" fold="1" page="1" pageScale="1" pageWidth="850" pageHeight="1100" math="0" shadow="0">
      <root>
        <mxCell id="0" />
        <mxCell id="1" parent="0" />
        <mxCell id="CyBAQU3gMxsRNL2kXF81-1" value="Stream API" style="rounded=1;whiteSpace=wrap;html=1;fontSize=14;fillColor=#d5e8d4;strokeColor=#82b366;" parent="1" vertex="1">
          <mxGeometry x="353.5" y="170" width="120" height="60" as="geometry" />
        </mxCell>
        <mxCell id="CyBAQU3gMxsRNL2kXF81-7" style="edgeStyle=orthogonalEdgeStyle;rounded=0;orthogonalLoop=1;jettySize=auto;html=1;exitX=0;exitY=0.5;exitDx=0;exitDy=0;entryX=0.5;entryY=1;entryDx=0;entryDy=0;entryPerimeter=0;fontSize=14;startArrow=classic;startFill=1;" parent="1" source="CyBAQU3gMxsRNL2kXF81-2" target="CyBAQU3gMxsRNL2kXF81-6" edge="1">
          <mxGeometry relative="1" as="geometry">
            <Array as="points">
              <mxPoint x="480" y="420" />
              <mxPoint x="480" y="470" />
              <mxPoint x="414" y="470" />
            </Array>
          </mxGeometry>
        </mxCell>
        <mxCell id="CyBAQU3gMxsRNL2kXF81-2" value="REST API (web)" style="rounded=1;whiteSpace=wrap;html=1;fontSize=14;fillColor=#d5e8d4;strokeColor=#82b366;" parent="1" vertex="1">
          <mxGeometry x="500" y="390" width="120" height="60" as="geometry" />
        </mxCell>
        <mxCell id="CyBAQU3gMxsRNL2kXF81-8" style="edgeStyle=orthogonalEdgeStyle;rounded=0;orthogonalLoop=1;jettySize=auto;html=1;exitX=0.5;exitY=0;exitDx=0;exitDy=0;exitPerimeter=0;entryX=0.5;entryY=1;entryDx=0;entryDy=0;fontSize=14;startArrow=classic;startFill=1;" parent="1" source="CyBAQU3gMxsRNL2kXF81-6" target="CyBAQU3gMxsRNL2kXF81-1" edge="1">
          <mxGeometry relative="1" as="geometry" />
        </mxCell>
        <mxCell id="yTjMd3iMnlX9_fvUtsfF-28" style="edgeStyle=orthogonalEdgeStyle;rounded=0;orthogonalLoop=1;jettySize=auto;html=1;exitX=0.5;exitY=1;exitDx=0;exitDy=0;exitPerimeter=0;entryX=1;entryY=0.5;entryDx=0;entryDy=0;fontSize=14;startArrow=none;startFill=0;endArrow=classic;endFill=1;strokeColor=#000000;" edge="1" parent="1" source="CyBAQU3gMxsRNL2kXF81-6" target="yTjMd3iMnlX9_fvUtsfF-19">
          <mxGeometry relative="1" as="geometry" />
        </mxCell>
        <mxCell id="yTjMd3iMnlX9_fvUtsfF-36" style="edgeStyle=orthogonalEdgeStyle;rounded=0;orthogonalLoop=1;jettySize=auto;html=1;exitX=0.5;exitY=1;exitDx=0;exitDy=0;exitPerimeter=0;entryX=0.5;entryY=0;entryDx=0;entryDy=0;fontSize=14;startArrow=classic;startFill=1;endArrow=classic;endFill=1;strokeColor=#000000;" edge="1" parent="1" source="CyBAQU3gMxsRNL2kXF81-6" target="yTjMd3iMnlX9_fvUtsfF-9">
          <mxGeometry relative="1" as="geometry" />
        </mxCell>
        <mxCell id="CyBAQU3gMxsRNL2kXF81-6" value="AWS RDS" style="shape=cylinder3;whiteSpace=wrap;html=1;boundedLbl=1;backgroundOutline=1;size=15;fontSize=14;fillColor=#dae8fc;strokeColor=#6c8ebf;" parent="1" vertex="1">
          <mxGeometry x="383.75" y="265" width="60" height="80" as="geometry" />
        </mxCell>
        <mxCell id="CyBAQU3gMxsRNL2kXF81-10" style="edgeStyle=orthogonalEdgeStyle;rounded=0;orthogonalLoop=1;jettySize=auto;html=1;exitX=0;exitY=0.5;exitDx=0;exitDy=0;entryX=1;entryY=0.5;entryDx=0;entryDy=0;fontSize=14;startArrow=classic;startFill=1;endArrow=classic;endFill=1;" parent="1" source="CyBAQU3gMxsRNL2kXF81-9" target="CyBAQU3gMxsRNL2kXF81-1" edge="1">
          <mxGeometry relative="1" as="geometry" />
        </mxCell>
        <mxCell id="yTjMd3iMnlX9_fvUtsfF-3" style="edgeStyle=orthogonalEdgeStyle;rounded=0;orthogonalLoop=1;jettySize=auto;html=1;exitX=0;exitY=0.5;exitDx=0;exitDy=0;entryX=1;entryY=0.5;entryDx=0;entryDy=0;fontSize=14;startArrow=classic;startFill=1;endArrow=classic;endFill=1;" edge="1" parent="1" source="CyBAQU3gMxsRNL2kXF81-9" target="yTjMd3iMnlX9_fvUtsfF-2">
          <mxGeometry relative="1" as="geometry" />
        </mxCell>
        <mxCell id="CyBAQU3gMxsRNL2kXF81-9" value="User-facing&lt;br&gt;Application" style="ellipse;whiteSpace=wrap;html=1;fontSize=14;fillColor=#fff2cc;strokeColor=#d6b656;" parent="1" vertex="1">
          <mxGeometry x="643.5" y="80" width="120" height="80" as="geometry" />
        </mxCell>
        <mxCell id="CyBAQU3gMxsRNL2kXF81-13" style="edgeStyle=orthogonalEdgeStyle;rounded=0;orthogonalLoop=1;jettySize=auto;html=1;exitX=0;exitY=0.5;exitDx=0;exitDy=0;entryX=1;entryY=0.5;entryDx=0;entryDy=0;fontSize=14;startArrow=classic;startFill=1;" parent="1" source="CyBAQU3gMxsRNL2kXF81-12" edge="1">
          <mxGeometry relative="1" as="geometry">
            <mxPoint x="620" y="420" as="targetPoint" />
          </mxGeometry>
        </mxCell>
        <mxCell id="CyBAQU3gMxsRNL2kXF81-12" value="Rollout&lt;br&gt;Dashboard" style="ellipse;whiteSpace=wrap;html=1;fontSize=14;fillColor=#d5e8d4;strokeColor=#82b366;" parent="1" vertex="1">
          <mxGeometry x="700" y="380" width="120" height="80" as="geometry" />
        </mxCell>
        <mxCell id="CyBAQU3gMxsRNL2kXF81-14" value="REST" style="text;html=1;align=center;verticalAlign=middle;resizable=0;points=[];autosize=1;strokeColor=none;fillColor=none;fontSize=14;" parent="1" vertex="1">
          <mxGeometry x="635" y="390" width="60" height="30" as="geometry" />
        </mxCell>
        <mxCell id="CyBAQU3gMxsRNL2kXF81-16" style="edgeStyle=orthogonalEdgeStyle;rounded=0;orthogonalLoop=1;jettySize=auto;html=1;exitX=0;exitY=0.3333333333333333;exitDx=0;exitDy=0;exitPerimeter=0;fontSize=14;startArrow=none;startFill=0;" parent="1" source="CyBAQU3gMxsRNL2kXF81-15" target="CyBAQU3gMxsRNL2kXF81-12" edge="1">
          <mxGeometry relative="1" as="geometry" />
        </mxCell>
        <mxCell id="CyBAQU3gMxsRNL2kXF81-15" value="Rollout Project Owner" style="shape=umlActor;verticalLabelPosition=bottom;verticalAlign=top;html=1;outlineConnect=0;fontSize=14;fillColor=#fff2cc;strokeColor=#d6b656;" parent="1" vertex="1">
          <mxGeometry x="865" y="400" width="30" height="60" as="geometry" />
        </mxCell>
        <mxCell id="CyBAQU3gMxsRNL2kXF81-18" style="edgeStyle=orthogonalEdgeStyle;rounded=0;orthogonalLoop=1;jettySize=auto;html=1;exitX=0;exitY=0.3333333333333333;exitDx=0;exitDy=0;exitPerimeter=0;entryX=1;entryY=0.5;entryDx=0;entryDy=0;fontSize=14;startArrow=none;startFill=0;" parent="1" source="CyBAQU3gMxsRNL2kXF81-17" target="CyBAQU3gMxsRNL2kXF81-9" edge="1">
          <mxGeometry relative="1" as="geometry" />
        </mxCell>
        <mxCell id="CyBAQU3gMxsRNL2kXF81-17" value="App User" style="shape=umlActor;verticalLabelPosition=bottom;verticalAlign=top;html=1;outlineConnect=0;fontSize=14;fillColor=#fff2cc;strokeColor=#d6b656;" parent="1" vertex="1">
          <mxGeometry x="798.5" y="100" width="30" height="60" as="geometry" />
        </mxCell>
        <mxCell id="yTjMd3iMnlX9_fvUtsfF-1" value="Stream Flag Updates" style="text;html=1;align=center;verticalAlign=middle;resizable=0;points=[];autosize=1;strokeColor=none;fillColor=none;fontSize=14;" vertex="1" parent="1">
          <mxGeometry x="473.5" y="200" width="160" height="30" as="geometry" />
        </mxCell>
        <mxCell id="yTjMd3iMnlX9_fvUtsfF-7" style="edgeStyle=orthogonalEdgeStyle;rounded=0;orthogonalLoop=1;jettySize=auto;html=1;exitX=0;exitY=0.5;exitDx=0;exitDy=0;entryX=0;entryY=0.5;entryDx=0;entryDy=0;entryPerimeter=0;fontSize=14;startArrow=none;startFill=0;endArrow=classic;endFill=1;fillColor=#e1d5e7;strokeColor=#000000;" edge="1" parent="1" source="yTjMd3iMnlX9_fvUtsfF-2" target="yTjMd3iMnlX9_fvUtsfF-5">
          <mxGeometry relative="1" as="geometry" />
        </mxCell>
        <mxCell id="yTjMd3iMnlX9_fvUtsfF-2" value="Events API" style="rounded=1;whiteSpace=wrap;html=1;fontSize=14;fillColor=#d5e8d4;strokeColor=#82b366;" vertex="1" parent="1">
          <mxGeometry x="353.5" y="60" width="120" height="60" as="geometry" />
        </mxCell>
        <mxCell id="yTjMd3iMnlX9_fvUtsfF-4" value="POST SDK Events" style="text;html=1;align=center;verticalAlign=middle;resizable=0;points=[];autosize=1;strokeColor=none;fillColor=none;fontSize=14;" vertex="1" parent="1">
          <mxGeometry x="478.5" y="60" width="140" height="30" as="geometry" />
        </mxCell>
        <mxCell id="yTjMd3iMnlX9_fvUtsfF-37" style="edgeStyle=orthogonalEdgeStyle;rounded=0;orthogonalLoop=1;jettySize=auto;html=1;exitX=0.5;exitY=0;exitDx=0;exitDy=0;exitPerimeter=0;entryX=0;entryY=0.5;entryDx=0;entryDy=0;fontSize=14;startArrow=none;startFill=0;endArrow=classic;endFill=1;strokeColor=#000000;" edge="1" parent="1" source="yTjMd3iMnlX9_fvUtsfF-5" target="yTjMd3iMnlX9_fvUtsfF-19">
          <mxGeometry relative="1" as="geometry" />
        </mxCell>
        <mxCell id="yTjMd3iMnlX9_fvUtsfF-38" style="edgeStyle=orthogonalEdgeStyle;rounded=0;orthogonalLoop=1;jettySize=auto;html=1;exitX=1;exitY=0.5;exitDx=0;exitDy=0;exitPerimeter=0;entryX=0;entryY=0.25;entryDx=0;entryDy=0;fontSize=14;startArrow=none;startFill=0;endArrow=classic;endFill=1;strokeColor=#000000;" edge="1" parent="1" source="yTjMd3iMnlX9_fvUtsfF-5" target="yTjMd3iMnlX9_fvUtsfF-9">
          <mxGeometry relative="1" as="geometry" />
        </mxCell>
        <mxCell id="yTjMd3iMnlX9_fvUtsfF-5" value="" style="outlineConnect=0;dashed=0;verticalLabelPosition=bottom;verticalAlign=top;align=center;html=1;shape=mxgraph.aws3.queue;fillColor=#D9A741;gradientColor=none;fontSize=14;rotation=90;" vertex="1" parent="1">
          <mxGeometry x="-63.25" y="452" width="120" height="48" as="geometry" />
        </mxCell>
        <mxCell id="yTjMd3iMnlX9_fvUtsfF-6" value="Kafka" style="text;html=1;align=center;verticalAlign=middle;resizable=0;points=[];autosize=1;strokeColor=none;fillColor=none;fontSize=14;" vertex="1" parent="1">
          <mxGeometry x="-90" y="460" width="60" height="30" as="geometry" />
        </mxCell>
        <mxCell id="yTjMd3iMnlX9_fvUtsfF-8" value="Kafka Message per Event" style="text;html=1;align=center;verticalAlign=middle;resizable=0;points=[];autosize=1;strokeColor=none;fillColor=none;fontSize=14;" vertex="1" parent="1">
          <mxGeometry x="173.5" y="60" width="180" height="30" as="geometry" />
        </mxCell>
        <mxCell id="yTjMd3iMnlX9_fvUtsfF-15" style="edgeStyle=orthogonalEdgeStyle;rounded=0;orthogonalLoop=1;jettySize=auto;html=1;exitX=0.75;exitY=1;exitDx=0;exitDy=0;entryX=0.5;entryY=1;entryDx=0;entryDy=0;entryPerimeter=0;fontSize=14;startArrow=none;startFill=0;endArrow=classic;endFill=1;strokeColor=#000000;" edge="1" parent="1" source="yTjMd3iMnlX9_fvUtsfF-9" target="yTjMd3iMnlX9_fvUtsfF-10">
          <mxGeometry relative="1" as="geometry">
            <Array as="points">
              <mxPoint x="434" y="720" />
              <mxPoint x="525" y="720" />
            </Array>
          </mxGeometry>
        </mxCell>
        <mxCell id="yTjMd3iMnlX9_fvUtsfF-16" style="edgeStyle=orthogonalEdgeStyle;rounded=0;orthogonalLoop=1;jettySize=auto;html=1;exitX=0.25;exitY=1;exitDx=0;exitDy=0;fontSize=14;startArrow=none;startFill=0;endArrow=classic;endFill=1;strokeColor=#000000;" edge="1" parent="1" source="yTjMd3iMnlX9_fvUtsfF-9" target="yTjMd3iMnlX9_fvUtsfF-13">
          <mxGeometry relative="1" as="geometry" />
        </mxCell>
        <mxCell id="yTjMd3iMnlX9_fvUtsfF-29" style="edgeStyle=orthogonalEdgeStyle;rounded=0;orthogonalLoop=1;jettySize=auto;html=1;exitX=0.25;exitY=0;exitDx=0;exitDy=0;entryX=0.5;entryY=1;entryDx=0;entryDy=0;entryPerimeter=0;fontSize=14;startArrow=classic;startFill=1;endArrow=classic;endFill=1;strokeColor=#000000;" edge="1" parent="1" source="yTjMd3iMnlX9_fvUtsfF-30" target="CyBAQU3gMxsRNL2kXF81-6">
          <mxGeometry relative="1" as="geometry" />
        </mxCell>
        <mxCell id="yTjMd3iMnlX9_fvUtsfF-9" value="recorder" style="rounded=1;whiteSpace=wrap;html=1;fontSize=14;fillColor=#d5e8d4;strokeColor=#82b366;" vertex="1" parent="1">
          <mxGeometry x="373.75" y="550" width="80" height="60" as="geometry" />
        </mxCell>
        <mxCell id="yTjMd3iMnlX9_fvUtsfF-31" style="edgeStyle=orthogonalEdgeStyle;rounded=0;orthogonalLoop=1;jettySize=auto;html=1;exitX=0.5;exitY=0;exitDx=0;exitDy=0;exitPerimeter=0;entryX=0.5;entryY=1;entryDx=0;entryDy=0;fontSize=14;startArrow=classic;startFill=1;endArrow=classic;endFill=1;strokeColor=#000000;" edge="1" parent="1" source="yTjMd3iMnlX9_fvUtsfF-10" target="yTjMd3iMnlX9_fvUtsfF-30">
          <mxGeometry relative="1" as="geometry" />
        </mxCell>
        <mxCell id="yTjMd3iMnlX9_fvUtsfF-10" value="Redis" style="shape=cylinder3;whiteSpace=wrap;html=1;boundedLbl=1;backgroundOutline=1;size=15;fontSize=14;fillColor=#f8cecc;strokeColor=#b85450;" vertex="1" parent="1">
          <mxGeometry x="495" y="630" width="60" height="80" as="geometry" />
        </mxCell>
        <mxCell id="yTjMd3iMnlX9_fvUtsfF-12" value="" style="sketch=0;points=[[0,0,0],[0.25,0,0],[0.5,0,0],[0.75,0,0],[1,0,0],[0,1,0],[0.25,1,0],[0.5,1,0],[0.75,1,0],[1,1,0],[0,0.25,0],[0,0.5,0],[0,0.75,0],[1,0.25,0],[1,0.5,0],[1,0.75,0]];outlineConnect=0;fontColor=#232F3E;gradientColor=#945DF2;gradientDirection=north;fillColor=#5A30B5;strokeColor=#ffffff;dashed=0;verticalLabelPosition=bottom;verticalAlign=top;align=center;html=1;fontSize=12;fontStyle=0;aspect=fixed;shape=mxgraph.aws4.resourceIcon;resIcon=mxgraph.aws4.elasticsearch_service;" vertex="1" parent="1">
          <mxGeometry x="173.5" y="595.5" width="78" height="78" as="geometry" />
        </mxCell>
        <mxCell id="yTjMd3iMnlX9_fvUtsfF-13" value="Elasticsearch" style="text;html=1;align=center;verticalAlign=middle;resizable=0;points=[];autosize=1;strokeColor=none;fillColor=none;fontSize=14;" vertex="1" parent="1">
          <mxGeometry x="157.5" y="695.5" width="110" height="30" as="geometry" />
        </mxCell>
        <mxCell id="yTjMd3iMnlX9_fvUtsfF-17" value="User Data" style="text;html=1;align=center;verticalAlign=middle;resizable=0;points=[];autosize=1;strokeColor=none;fillColor=none;fontSize=14;" vertex="1" parent="1">
          <mxGeometry x="267.5" y="610" width="90" height="30" as="geometry" />
        </mxCell>
        <mxCell id="yTjMd3iMnlX9_fvUtsfF-18" value="Time Series&lt;br&gt;Data" style="text;html=1;align=center;verticalAlign=middle;resizable=0;points=[];autosize=1;strokeColor=none;fillColor=none;fontSize=14;" vertex="1" parent="1">
          <mxGeometry x="410" y="740" width="100" height="50" as="geometry" />
        </mxCell>
        <mxCell id="yTjMd3iMnlX9_fvUtsfF-26" style="edgeStyle=orthogonalEdgeStyle;rounded=0;orthogonalLoop=1;jettySize=auto;html=1;exitX=0.5;exitY=0;exitDx=0;exitDy=0;entryX=1;entryY=0.5;entryDx=0;entryDy=0;entryPerimeter=0;fontSize=14;startArrow=none;startFill=0;endArrow=classic;endFill=1;strokeColor=#000000;" edge="1" parent="1" source="yTjMd3iMnlX9_fvUtsfF-19" target="yTjMd3iMnlX9_fvUtsfF-22">
          <mxGeometry relative="1" as="geometry" />
        </mxCell>
        <mxCell id="yTjMd3iMnlX9_fvUtsfF-19" value="exporter" style="rounded=1;whiteSpace=wrap;html=1;fontSize=14;fillColor=#d5e8d4;strokeColor=#82b366;" vertex="1" parent="1">
          <mxGeometry x="250" y="455" width="80" height="60" as="geometry" />
        </mxCell>
        <mxCell id="yTjMd3iMnlX9_fvUtsfF-22" value="" style="outlineConnect=0;dashed=0;verticalLabelPosition=bottom;verticalAlign=top;align=center;html=1;shape=mxgraph.aws3.kinesis;fillColor=#F58534;gradientColor=none;fontSize=14;" vertex="1" parent="1">
          <mxGeometry x="210" y="210" width="67.5" height="81" as="geometry" />
        </mxCell>
        <mxCell id="yTjMd3iMnlX9_fvUtsfF-27" value="Downstream Event Sink&lt;br&gt;(Kinesis)" style="text;html=1;align=center;verticalAlign=middle;resizable=0;points=[];autosize=1;strokeColor=none;fillColor=none;fontSize=14;" vertex="1" parent="1">
          <mxGeometry x="97.5" y="190" width="170" height="50" as="geometry" />
        </mxCell>
        <mxCell id="yTjMd3iMnlX9_fvUtsfF-34" style="edgeStyle=orthogonalEdgeStyle;rounded=0;orthogonalLoop=1;jettySize=auto;html=1;exitX=1;exitY=0.5;exitDx=0;exitDy=0;fontSize=14;startArrow=classic;startFill=1;endArrow=classic;endFill=1;strokeColor=#000000;" edge="1" parent="1" source="yTjMd3iMnlX9_fvUtsfF-30" target="yTjMd3iMnlX9_fvUtsfF-32">
          <mxGeometry relative="1" as="geometry" />
        </mxCell>
        <mxCell id="yTjMd3iMnlX9_fvUtsfF-30" value="experiment-handler" style="rounded=1;whiteSpace=wrap;html=1;fontSize=14;fillColor=#d5e8d4;strokeColor=#82b366;" vertex="1" parent="1">
          <mxGeometry x="485" y="500" width="80" height="60" as="geometry" />
        </mxCell>
        <mxCell id="yTjMd3iMnlX9_fvUtsfF-32" value="" style="shape=image;html=1;verticalAlign=top;verticalLabelPosition=bottom;labelBackgroundColor=#ffffff;imageAspect=0;aspect=fixed;image=https://cdn2.iconfinder.com/data/icons/halloween-scarry-hand-drawn-black-1/257/22-halloween-monster-scarry-eye-128.png;fontSize=14;" vertex="1" parent="1">
          <mxGeometry x="718" y="488" width="84" height="84" as="geometry" />
        </mxCell>
        <mxCell id="yTjMd3iMnlX9_fvUtsfF-33" value="Monster" style="text;html=1;align=center;verticalAlign=middle;resizable=0;points=[];autosize=1;strokeColor=none;fillColor=none;fontSize=14;" vertex="1" parent="1">
          <mxGeometry x="725" y="565.5" width="70" height="30" as="geometry" />
        </mxCell>
        <mxCell id="yTjMd3iMnlX9_fvUtsfF-39" value="FactSet.io Application &quot;rollout-api&quot;" style="swimlane;fontSize=14;" vertex="1" parent="1">
          <mxGeometry x="210" y="350" width="420" height="270" as="geometry" />
        </mxCell>
      </root>
    </mxGraphModel>
  </diagram>
</mxfile>
